<svg width="37" height="22" viewBox="0 0 37 22" fill="none" xmlns="http://www.w3.org/2000/svg">
<rect x="3.375" y="1.375" width="31.25" height="19.25" rx="3.625" stroke="#1A1919" stroke-width="0.75"/>
<path d="M10.8389 8.18359C10.1997 8.18359 9.68408 8.57031 9.35107 8.57031C9.00195 8.57031 8.53467 8.20508 7.98145 8.20508C6.92871 8.20508 5.85986 9.08057 5.85986 10.7188C5.85986 11.7446 6.25732 12.8242 6.74609 13.5278C7.15967 14.1133 7.53027 14.5967 8.05664 14.5967C8.57764 14.5967 8.80859 14.2529 9.4585 14.2529C10.1138 14.2529 10.2642 14.5859 10.8389 14.5859C11.4136 14.5859 11.7949 14.0649 12.1548 13.5493C12.5522 12.9531 12.7241 12.373 12.7295 12.3462C12.6973 12.3354 11.6016 11.8896 11.6016 10.6328C11.6016 9.54785 12.4609 9.06445 12.5093 9.02686C11.9453 8.20508 11.0806 8.18359 10.8389 8.18359ZM10.5435 7.49072C10.8013 7.17383 10.9839 6.74414 10.9839 6.30908C10.9839 6.25 10.9785 6.19092 10.9678 6.14258C10.5488 6.15869 10.0332 6.42188 9.72705 6.78174C9.49072 7.05566 9.26514 7.49072 9.26514 7.92578C9.26514 7.99023 9.27588 8.06006 9.28125 8.08154C9.30811 8.08691 9.35107 8.09229 9.39404 8.09229C9.77539 8.09229 10.2588 7.83447 10.5435 7.49072ZM14.9258 6.74951V14.5H16.3115V11.9595H17.9927C19.561 11.9595 20.6567 10.9067 20.6567 9.37061C20.6567 7.80762 19.5986 6.74951 18.0518 6.74951H14.9258ZM16.3115 7.90967H17.6865C18.6855 7.90967 19.2495 8.41992 19.2495 9.37061C19.2495 10.2944 18.6694 10.8101 17.6812 10.8101H16.3115V7.90967ZM23.3418 13.5493C22.751 13.5493 22.3267 13.2539 22.3267 12.7598C22.3267 12.2817 22.6758 12.0132 23.4224 11.9648L24.749 11.8789V12.3462C24.749 13.0283 24.1475 13.5493 23.3418 13.5493ZM22.9497 14.5967C23.7178 14.5967 24.3623 14.2637 24.6899 13.6943H24.7812V14.5H26.0649V10.4878C26.0649 9.2417 25.2163 8.50586 23.707 8.50586C22.3105 8.50586 21.3384 9.1665 21.231 10.2031H22.4878C22.6113 9.80566 23.0303 9.59082 23.6426 9.59082C24.3623 9.59082 24.749 9.91309 24.749 10.4878V10.9819L23.2344 11.0732C21.8057 11.1592 21.0054 11.7715 21.0054 12.835C21.0054 13.9092 21.8164 14.5967 22.9497 14.5967ZM27.6328 16.6323C28.9487 16.6323 29.5771 16.1489 30.0767 14.688L32.1982 8.62402H30.791L29.4214 13.2109H29.3301L27.9551 8.62402H26.4941L28.5942 14.5269L28.5244 14.7847C28.3525 15.3271 28.0356 15.542 27.4717 15.542C27.3804 15.542 27.1816 15.5366 27.1064 15.5205V16.6108C27.1924 16.627 27.5522 16.6323 27.6328 16.6323Z" fill="#1A1919"/>
</svg>
