<svg width="30" height="20" viewBox="0 0 30 20" fill="none" xmlns="http://www.w3.org/2000/svg">
<rect x="0.375" y="0.375" width="29.25" height="19.25" rx="3.625" fill="white" stroke="#CECCCA" stroke-width="0.75"/>
<path d="M9.71186 11.5994H6.71565L6.01622 12.9568H4.21094L7.87821 6.38194H9.29598L11.9047 12.9568H10.2033L9.71186 11.5994ZM9.23927 10.2973L8.47367 8.20112L7.39617 10.2973H9.23927ZM15.5058 13.04C14.8252 13.04 14.236 12.9138 13.7383 12.6613C13.2468 12.4028 12.8687 12.0365 12.6041 11.5625C12.3394 11.0823 12.2071 10.519 12.2071 9.87255C12.2071 9.15227 12.3552 8.52432 12.6513 7.98873C12.9538 7.44698 13.3759 7.03143 13.9179 6.74208C14.4661 6.44658 15.1024 6.29883 15.8271 6.29883C16.2744 6.29883 16.6967 6.36039 17.0936 6.48352C17.4906 6.60664 17.8434 6.78517 18.1522 7.01911L17.5095 8.24729C17.2385 8.04413 16.9739 7.89638 16.7156 7.80404C16.4572 7.7117 16.1894 7.66552 15.9122 7.66552C15.3073 7.66552 14.8378 7.86253 14.5039 8.25653C14.1699 8.64437 14.0029 9.18308 14.0029 9.87255C14.0029 10.4574 14.1321 10.9037 14.3905 11.2115C14.6551 11.5194 15.0394 11.6733 15.5436 11.6733C15.8082 11.6733 16.0791 11.6271 16.3564 11.5347C16.64 11.4363 16.9487 11.2885 17.2827 11.0915L17.7269 12.3197C17.5001 12.5352 17.1818 12.7106 16.7723 12.846C16.3627 12.9753 15.9405 13.04 15.5058 13.04ZM25.3125 6.38194L24.7832 12.9568H23.0346L23.252 10.2973H20.5488L20.3314 12.9568H18.5923L19.1216 6.38194H20.8702L20.6623 8.93987H23.3654L23.5828 6.38194H25.3125Z" fill="#504C49"/>
</svg>
