<svg width="121" height="20" viewBox="0 0 121 20" fill="none" xmlns="http://www.w3.org/2000/svg">
<rect x="0.832031" y="0.5" width="27.6667" height="19" rx="5.5" fill="white" stroke="#D9D9D9"/>
<path fill-rule="evenodd" clip-rule="evenodd" d="M9.03641 13.5492H7.29977L5.99749 8.49429C5.93568 8.26176 5.80444 8.0562 5.61138 7.95931C5.1296 7.71583 4.59869 7.52206 4.01953 7.42434V7.22972H6.81713C7.20324 7.22972 7.49282 7.52206 7.54108 7.86158L8.21677 11.5078L9.95257 7.22972H11.641L9.03641 13.5492ZM12.6062 13.5492H10.9661L12.3166 7.22972H13.9568L12.6062 13.5492ZM16.0787 8.98041C16.1269 8.64005 16.4165 8.44544 16.7544 8.44544C17.2853 8.39657 17.8636 8.4943 18.3462 8.73694L18.6358 7.37633C18.1532 7.18171 17.6223 7.08398 17.1405 7.08398C15.5486 7.08398 14.3903 7.95932 14.3903 9.17418C14.3903 10.0984 15.2108 10.5837 15.7899 10.876C16.4165 11.1675 16.6578 11.3621 16.6096 11.6536C16.6096 12.0909 16.1269 12.2855 15.6451 12.2855C15.066 12.2855 14.4868 12.1397 13.9568 11.8962L13.6672 13.2577C14.2463 13.5003 14.8729 13.5981 15.4521 13.5981C17.237 13.6461 18.3462 12.7716 18.3462 11.459C18.3462 9.80605 16.0787 9.70916 16.0787 8.98041ZM24.0862 13.5492L22.7839 7.22972H21.3851C21.0955 7.22972 20.806 7.42434 20.7094 7.71583L18.2979 13.5492H19.9863L20.3233 12.6258H22.3978L22.5909 13.5492H24.0862ZM21.6265 8.93155L22.1082 11.3132H20.7577L21.6265 8.93155Z" fill="#172B85"/>
<rect x="31.5" y="0.5" width="27.6667" height="19" rx="5.5" fill="#1F72CD" stroke="#D9D9D9"/>
<path fill-rule="evenodd" clip-rule="evenodd" d="M36.1391 7.08398L33.457 13.1229H36.6679L37.0659 12.1601H37.9758L38.3739 13.1229H41.9081V12.3881L42.2231 13.1229H44.0512L44.3662 12.3725V13.1229H51.7165L52.6102 12.1851L53.4471 13.1229L57.2224 13.1307L54.5318 10.1203L57.2224 7.08398H53.5057L52.6356 8.00451L51.8251 7.08398H43.8289L43.1423 8.64269L42.4396 7.08398H39.2354V7.79386L38.879 7.08398H36.1391ZM36.7604 7.94154H38.3256L40.1046 12.0366V7.94154H41.8191L43.1932 10.8777L44.4596 7.94154H46.1656V12.2749H45.1276L45.1191 8.8793L43.6057 12.2749H42.6771L41.1553 8.8793V12.2749H39.0198L38.615 11.3034H36.4277L36.0237 12.274H34.8795L36.7604 7.94154ZM51.3362 7.94154H47.1153V12.2723H51.2709L52.6102 10.837L53.9012 12.2723H55.2507L53.2892 10.1195L55.2507 7.94154H53.9598L52.6272 9.36035L51.3362 7.94154ZM37.5218 8.67469L36.8012 10.4053H38.2416L37.5218 8.67469ZM48.1576 9.6298V8.83875V8.83799H50.7913L51.9405 10.1031L50.7404 11.3751H48.1576V10.5115H50.4603V9.6298H48.1576Z" fill="white"/>
<rect x="62.1641" y="0.5" width="28.3333" height="19" rx="5.5" fill="white" stroke="#D9D9D9"/>
<path d="M74.0234 19.5827L90.5758 14.791C90.5758 17.4374 88.4305 19.5827 85.7842 19.5827H74.0234Z" fill="#FD6020"/>
<path fill-rule="evenodd" clip-rule="evenodd" d="M87.435 8.0084C88.3456 8.0084 88.8465 8.41135 88.8465 9.17248C88.892 9.75452 88.4822 10.247 87.9359 10.3366L89.1652 11.9931H88.209L87.1618 10.3813H87.0707V11.9931H86.2967V8.0084H87.435ZM87.0707 9.84404H87.2984C87.7993 9.84404 88.0269 9.62018 88.0269 9.21723C88.0269 8.85905 87.7993 8.63519 87.2984 8.63519H87.0707V9.84404ZM83.6103 11.9931H85.7959V11.3215H84.3844V10.247H85.7503V9.57542H84.3844V8.67997H85.7959V8.00839H83.6103V11.9931ZM81.3337 10.6947L80.2865 8.00839H79.4669L81.1516 12.0827H81.5614L83.2461 8.00839H82.4265L81.3337 10.6947ZM72.0908 10.0231C72.0908 11.1424 73.0014 12.0827 74.1397 12.0827C74.5039 12.0827 74.8227 11.9931 75.1414 11.8588V10.9634C74.9137 11.232 74.595 11.4111 74.2308 11.4111C73.5022 11.4111 72.9103 10.8738 72.9103 10.1575V10.0679C72.8648 9.35155 73.4567 8.72474 74.1852 8.67996C74.5495 8.67996 74.9137 8.85905 75.1414 9.12769V8.23224C74.8682 8.05315 74.5039 8.00838 74.1852 8.00838C73.0014 7.91883 72.0908 8.85905 72.0908 10.0231ZM70.6793 9.53065C70.224 9.35156 70.0874 9.26202 70.0874 9.03816C70.1329 8.76952 70.3606 8.54566 70.6337 8.59043C70.8614 8.59043 71.0891 8.72475 71.2712 8.90384L71.681 8.36657C71.3623 8.09793 70.9525 7.91884 70.5427 7.91884C69.9052 7.87407 69.3588 8.36657 69.3133 8.99338V9.03816C69.3133 9.57542 69.541 9.88883 70.2695 10.1127C70.4516 10.1575 70.6337 10.247 70.8159 10.3366C70.9525 10.4261 71.0435 10.5604 71.0435 10.7395C71.0435 11.0529 70.7703 11.3216 70.4971 11.3216H70.4516C70.0874 11.3216 69.7686 11.0977 69.632 10.7843L69.1312 11.2768C69.4044 11.7693 69.9508 12.0379 70.4971 12.0379C71.2257 12.0827 71.8176 11.5454 71.8631 10.8291V10.6947C71.8176 10.1575 71.5899 9.88883 70.6793 9.53065ZM68.0384 11.9931H68.8125V8.00839H68.0384V11.9931ZM64.4414 8.0084H65.5797H65.8074C66.9001 8.05317 67.7652 8.94862 67.7197 10.0232C67.7197 10.6052 67.4465 11.1425 66.9912 11.5454C66.5814 11.8588 66.0806 12.0379 65.5797 11.9931H64.4414V8.0084ZM65.4431 11.3216C65.8074 11.3663 66.2171 11.232 66.4903 11.0082C66.7635 10.7395 66.9001 10.3813 66.9001 9.97838C66.9001 9.6202 66.7635 9.26202 66.4903 8.99339C66.2171 8.76953 65.8074 8.63521 65.4431 8.67998H65.2154V11.3216H65.4431Z" fill="black"/>
<path fill-rule="evenodd" clip-rule="evenodd" d="M77.4617 7.91602C76.3234 7.91602 75.3672 8.81146 75.3672 9.97555C75.3672 11.0949 76.2778 12.0351 77.4617 12.0799C78.6455 12.1246 79.5561 11.1844 79.6017 10.0203C79.5561 8.85624 78.6455 7.91602 77.4617 7.91602V7.91602Z" fill="#FD6020"/>
<rect x="93.5" y="0.5" width="27" height="19" rx="5.5" fill="white" stroke="#D9D9D9"/>
<path fill-rule="evenodd" clip-rule="evenodd" d="M107.146 14.4843C106.194 15.3412 104.958 15.8585 103.609 15.8585C100.597 15.8585 98.1562 13.283 98.1562 10.106C98.1562 6.92899 100.597 4.35352 103.609 4.35352C104.958 4.35352 106.194 4.87081 107.146 5.72771C108.098 4.87081 109.333 4.35352 110.683 4.35352C113.694 4.35352 116.135 6.92899 116.135 10.106C116.135 13.283 113.694 15.8585 110.683 15.8585C109.333 15.8585 108.098 15.3412 107.146 14.4843Z" fill="#ED0006"/>
<path fill-rule="evenodd" clip-rule="evenodd" d="M107.145 14.4843C108.317 13.4292 109.06 11.8592 109.06 10.106C109.06 8.35282 108.317 6.78282 107.145 5.72771C108.097 4.87081 109.332 4.35352 110.681 4.35352C113.693 4.35352 116.134 6.92899 116.134 10.106C116.134 13.283 113.693 15.8585 110.681 15.8585C109.332 15.8585 108.097 15.3412 107.145 14.4843Z" fill="#F9A000"/>
<path fill-rule="evenodd" clip-rule="evenodd" d="M107.146 14.4851C108.319 13.43 109.062 11.86 109.062 10.1068C109.062 8.35362 108.319 6.78363 107.146 5.72852C105.974 6.78363 105.23 8.35362 105.23 10.1068C105.23 11.86 105.974 13.43 107.146 14.4851Z" fill="#FF5E00"/>
</svg>
