<svg width="20" height="20" viewBox="0 0 20 20" fill="none" xmlns="http://www.w3.org/2000/svg">
<path d="M5.73246 12.2995H10.8858C11.0257 12.2995 11.1445 12.2492 11.2421 12.1485C11.3397 12.0478 11.3884 11.9228 11.3884 11.7735C11.3884 11.6242 11.3383 11.5001 11.2381 11.4011C11.1379 11.3021 11.0135 11.2526 10.8649 11.2526H5.71163C5.57169 11.2526 5.45292 11.3038 5.35534 11.4062C5.25777 11.5086 5.20898 11.6336 5.20898 11.7811C5.20898 11.9287 5.25908 12.052 5.35928 12.151C5.45948 12.25 5.58388 12.2995 5.73246 12.2995ZM5.73246 9.69804H14.2896C14.4296 9.69804 14.5483 9.64769 14.6459 9.54699C14.7435 9.44631 14.7923 9.32132 14.7923 9.17202C14.7923 9.02271 14.7422 8.89856 14.642 8.79956C14.5418 8.70056 14.4174 8.65106 14.2688 8.65106H5.71163C5.57169 8.65106 5.45292 8.70226 5.35534 8.80466C5.25777 8.90706 5.20898 9.03206 5.20898 9.17964C5.20898 9.32724 5.25908 9.45054 5.35928 9.54954C5.45948 9.64854 5.58388 9.69804 5.73246 9.69804ZM5.73246 7.09654H14.2896C14.4296 7.09654 14.5483 7.04619 14.6459 6.94549C14.7435 6.84481 14.7923 6.71982 14.7923 6.57052C14.7923 6.42121 14.7422 6.29706 14.642 6.19806C14.5418 6.09906 14.4174 6.04956 14.2688 6.04956H5.71163C5.57169 6.04956 5.45292 6.10076 5.35534 6.20316C5.25777 6.30556 5.20898 6.43056 5.20898 6.57816C5.20898 6.72574 5.25908 6.84904 5.35928 6.94804C5.45948 7.04704 5.58388 7.09654 5.73246 7.09654ZM2.08398 16.7952V4.21943C2.08398 3.86615 2.21168 3.5606 2.46707 3.30277C2.72246 3.04493 3.02923 2.91602 3.3874 2.91602H16.6139C16.9671 2.91602 17.2727 3.04493 17.5305 3.30277C17.7884 3.5606 17.9173 3.86615 17.9173 4.21943V14.1126C17.9173 14.4658 17.7884 14.7714 17.5305 15.0292C17.2727 15.2871 16.9671 15.416 16.6139 15.416H5.03269L3.19242 17.2562C2.9873 17.4613 2.75128 17.5083 2.48436 17.397C2.21744 17.2858 2.08398 17.0852 2.08398 16.7952ZM3.13096 15.8305L4.59253 14.369H16.6139C16.6887 14.369 16.7501 14.345 16.7982 14.2969C16.8463 14.2488 16.8703 14.1873 16.8703 14.1126V4.21943C16.8703 4.14464 16.8463 4.0832 16.7982 4.03512C16.7501 3.98704 16.6887 3.96299 16.6139 3.96299H3.3874C3.31261 3.96299 3.25117 3.98704 3.20309 4.03512C3.15501 4.0832 3.13096 4.14464 3.13096 4.21943V15.8305ZM3.13096 4.21943V3.96299V15.8305V4.21943Z" fill="#78726E"/>
</svg>
