<svg width="20" height="20" viewBox="0 0 20 20" fill="none" xmlns="http://www.w3.org/2000/svg">
<path d="M13.2464 10.0468C13.1645 10.0468 13.0858 10.0342 13.0103 10.0091C12.9348 9.98404 12.8655 9.94211 12.8025 9.88334C11.6237 8.84809 10.6288 7.86063 9.81769 6.92095C9.00662 5.98127 8.60108 5.11084 8.60108 4.30966C8.60108 3.64417 8.83031 3.08179 9.28877 2.62251C9.74723 2.16323 10.3116 1.93359 10.9819 1.93359C11.3815 1.93359 11.7796 2.04302 12.1761 2.26186C12.5727 2.4807 12.9308 2.79436 13.2506 3.20284C13.5705 2.79436 13.9277 2.4807 14.3225 2.26186C14.7173 2.04302 15.1158 1.93359 15.5181 1.93359C16.1887 1.93359 16.7534 2.16323 17.2121 2.62251C17.6708 3.08179 17.9002 3.64417 17.9002 4.30966C17.9002 5.11084 17.4947 5.98127 16.6836 6.92095C15.8725 7.86063 14.8778 8.84809 13.6993 9.88334C13.6402 9.94211 13.5704 9.98404 13.49 10.0091C13.4095 10.0342 13.3283 10.0468 13.2464 10.0468ZM13.2506 8.83103C14.1812 8.01086 15.0143 7.19693 15.7499 6.38924C16.4854 5.58156 16.8532 4.88775 16.8532 4.30782C16.8532 3.92159 16.7291 3.60382 16.4808 3.35453C16.2324 3.10523 15.9133 2.98057 15.5234 2.98057C15.2928 2.98057 15.0525 3.04102 14.8027 3.16193C14.5529 3.28284 14.2937 3.52048 14.0252 3.87482L13.2506 4.8342L12.4708 3.87482C12.2022 3.52048 11.9432 3.28284 11.6936 3.16193C11.444 3.04102 11.2063 2.98057 10.9805 2.98057C10.5888 2.98057 10.2688 3.10523 10.0205 3.35453C9.77222 3.60382 9.64806 3.92159 9.64806 4.30782C9.64806 4.88775 10.0159 5.58156 10.7514 6.38924C11.487 7.19693 12.3201 8.01086 13.2506 8.83103ZM11.4478 17.1798C11.4745 17.1905 11.4994 17.1959 11.5225 17.1959C11.5457 17.1959 11.5688 17.1905 11.592 17.1798L16.5957 15.6227C16.5473 15.4393 16.4566 15.2764 16.3238 15.1342C16.1909 14.9919 16.0423 14.9207 15.8778 14.9207H11.4312C11.2378 14.9207 11.014 14.9078 10.7597 14.882C10.5055 14.8562 10.2517 14.7943 9.9985 14.6964L8.59786 14.2599C8.45661 14.2133 8.35194 14.1199 8.28386 13.9797C8.21577 13.8396 8.20559 13.6984 8.25331 13.5559C8.30104 13.4188 8.3902 13.3176 8.52079 13.2522C8.65139 13.1869 8.78997 13.1809 8.93652 13.2343L10.5359 13.7862C10.6584 13.8307 10.8596 13.8566 11.1395 13.8639C11.4195 13.8712 11.7875 13.8745 12.2435 13.8738H12.443C12.443 13.658 12.4031 13.4711 12.3233 13.3132C12.2435 13.1552 12.1221 13.0443 11.959 12.9806L7.014 11.1344C6.99442 11.1291 6.97883 11.1251 6.96725 11.1224C6.95568 11.1198 6.94188 11.1184 6.92586 11.1184H5.18119V15.3513L11.4478 17.1798ZM11.2068 18.1926L5.18119 16.4485C5.12741 16.8028 4.96413 17.0807 4.69133 17.2821C4.41854 17.4835 4.14735 17.5842 3.87777 17.5842H2.56904C2.21203 17.5842 1.90554 17.4562 1.64958 17.2002C1.39361 16.9443 1.26562 16.6378 1.26562 16.2808V11.3748C1.26562 11.0151 1.39361 10.7079 1.64958 10.4533C1.90556 10.1987 2.21204 10.0714 2.56904 10.0714H6.90396C6.98218 10.0714 7.05907 10.0791 7.13463 10.0944C7.21018 10.1097 7.28411 10.1295 7.3564 10.1537L12.3137 11.9956C12.6541 12.1206 12.9419 12.3349 13.1769 12.6385C13.4119 12.9421 13.5295 13.3538 13.5295 13.8738H15.9622C16.5042 13.8738 16.94 14.0574 17.2696 14.4248C17.5992 14.7921 17.764 15.2737 17.764 15.8695C17.764 16.0322 17.7235 16.1716 17.6427 16.2877C17.5619 16.4038 17.439 16.4909 17.2741 16.5489L11.9531 18.1884C11.8354 18.2218 11.712 18.239 11.5828 18.2399C11.4536 18.2408 11.3283 18.225 11.2068 18.1926ZM2.31263 16.2808C2.31263 16.352 2.33666 16.4125 2.38473 16.4624C2.43281 16.5123 2.49425 16.5372 2.56904 16.5372H3.86388C3.93867 16.5372 4.0001 16.5163 4.04819 16.4744C4.09627 16.4326 4.12031 16.368 4.12031 16.2808V11.1184H2.56904C2.49425 11.1184 2.43281 11.1425 2.38473 11.1905C2.33666 11.2386 2.31263 11.3001 2.31263 11.3748V16.2808Z" fill="#78726E"/>
</svg>
