<svg width="24" height="24" viewBox="0 0 24 24" fill="none" xmlns="http://www.w3.org/2000/svg">
<path d="M11.9989 15.9589C12.1761 15.9589 12.3315 15.8921 12.465 15.7584C12.5986 15.6248 12.6653 15.4718 12.6653 15.2996V11.8059C12.6653 11.6387 12.5985 11.4905 12.4647 11.3612C12.331 11.2319 12.1756 11.1673 11.9984 11.1673C11.8212 11.1673 11.6659 11.2341 11.5323 11.3678C11.3988 11.5015 11.332 11.6545 11.332 11.8267V15.3204C11.332 15.4876 11.3989 15.6358 11.5326 15.765C11.6664 15.8943 11.8218 15.9589 11.9989 15.9589ZM11.9987 9.72019C12.1894 9.72019 12.3562 9.64875 12.4991 9.50586C12.642 9.36297 12.7134 9.19617 12.7134 9.00546C12.7134 8.81477 12.642 8.64797 12.4991 8.50507C12.3562 8.36218 12.1894 8.29073 11.9987 8.29073C11.808 8.29073 11.6412 8.36218 11.4983 8.50507C11.3554 8.64797 11.2839 8.81477 11.2839 9.00546C11.2839 9.19617 11.3554 9.36297 11.4983 9.50586C11.6412 9.64875 11.808 9.72019 11.9987 9.72019ZM11.9987 19.9173C10.8993 19.9173 9.86807 19.7105 8.90495 19.2971C7.94181 18.8836 7.10393 18.3206 6.39132 17.608C5.67873 16.8954 5.1157 16.0575 4.70224 15.0944C4.28877 14.1312 4.08203 13.1 4.08203 12.0006C4.08203 10.9013 4.28877 9.87003 4.70224 8.9069C5.1157 7.94376 5.67873 7.10589 6.39132 6.39328C7.10393 5.68068 7.94181 5.11765 8.90495 4.70419C9.86807 4.29072 10.8993 4.08398 11.9987 4.08398C13.098 4.08398 14.1293 4.29072 15.0924 4.70419C16.0555 5.11765 16.8934 5.68068 17.606 6.39328C18.3186 7.10589 18.8817 7.94376 19.2951 8.9069C19.7086 9.87003 19.9153 10.9013 19.9153 12.0006C19.9153 13.1 19.7086 14.1312 19.2951 15.0944C18.8817 16.0575 18.3186 16.8954 17.606 17.608C16.8934 18.3206 16.0555 18.8836 15.0924 19.2971C14.1293 19.7105 13.098 19.9173 11.9987 19.9173ZM11.9937 18.584C13.8165 18.584 15.3702 17.9433 16.6549 16.6618C17.9397 15.3804 18.582 13.8284 18.582 12.0056C18.582 10.1828 17.9413 8.6291 16.6599 7.34438C15.3785 6.05966 13.8264 5.4173 12.0036 5.4173C10.1809 5.4173 8.62715 6.058 7.34243 7.33942C6.0577 8.62082 5.41534 10.1729 5.41534 11.9957C5.41534 13.8184 6.05605 15.3722 7.33747 16.6569C8.61887 17.9416 10.171 18.584 11.9937 18.584Z" fill="#1A1919"/>
</svg>
