<svg width="75" height="24" viewBox="0 0 75 24" fill="none" xmlns="http://www.w3.org/2000/svg">
<rect width="74" height="24" fill="#FFC439"/>
<path d="M11.9683 3.59961H6.49709C6.12269 3.59961 5.80429 3.87161 5.74589 4.24121L3.53309 18.2708C3.48909 18.5476 3.70349 18.7972 3.98429 18.7972H6.59629C6.97069 18.7972 7.28909 18.5252 7.34749 18.1548L7.94429 14.3708C8.00189 14.0004 8.32109 13.7284 8.69469 13.7284H10.4267C14.0307 13.7284 16.1107 11.9844 16.6539 8.52841C16.8987 7.01641 16.6643 5.82841 15.9563 4.99641C15.1787 4.08281 13.7995 3.59961 11.9683 3.59961ZM12.5995 8.72361C12.3003 10.6868 10.8003 10.6868 9.34989 10.6868H8.52429L9.10349 7.02041C9.13789 6.79881 9.32989 6.63561 9.55389 6.63561H9.93229C10.9203 6.63561 11.8523 6.63561 12.3339 7.19881C12.6211 7.53481 12.7091 8.03401 12.5995 8.72361Z" fill="#253B80"/>
<path d="M28.3217 8.66046H25.7017C25.4785 8.66046 25.2857 8.82366 25.2513 9.04526L25.1353 9.77806L24.9521 9.51246C24.3849 8.68926 23.1201 8.41406 21.8577 8.41406C18.9625 8.41406 16.4897 10.6069 16.0081 13.6829C15.7577 15.2173 16.1137 16.6845 16.9841 17.7077C17.7825 18.6485 18.9249 19.0405 20.2841 19.0405C22.6169 19.0405 23.9105 17.5405 23.9105 17.5405L23.7937 18.2685C23.7497 18.5469 23.9641 18.7965 24.2433 18.7965H26.6033C26.9785 18.7965 27.2953 18.5245 27.3545 18.1541L28.7705 9.18686C28.8153 8.91086 28.6017 8.66046 28.3217 8.66046ZM24.6697 13.7597C24.4169 15.2565 23.2289 16.2613 21.7137 16.2613C20.9529 16.2613 20.3449 16.0173 19.9545 15.5549C19.5673 15.0957 19.4201 14.4421 19.5433 13.7141C19.7793 12.2301 20.9873 11.1925 22.4793 11.1925C23.2233 11.1925 23.8281 11.4397 24.2265 11.9061C24.6257 12.3773 24.7841 13.0349 24.6697 13.7597Z" fill="#253B80"/>
<path d="M42.2772 8.66016H39.6444C39.3932 8.66016 39.1572 8.78496 39.0148 8.99376L35.3836 14.3426L33.8444 9.20256C33.7476 8.88096 33.4508 8.66016 33.1148 8.66016H30.5276C30.2132 8.66016 29.9948 8.96736 30.0948 9.26336L32.9948 17.7738L30.2684 21.6226C30.054 21.9258 30.27 22.3426 30.6404 22.3426H33.27C33.5196 22.3426 33.7532 22.221 33.8948 22.0162L42.6516 9.37616C42.8612 9.07376 42.646 8.66016 42.2772 8.66016Z" fill="#253B80"/>
<path d="M50.9917 3.59961H45.5197C45.1461 3.59961 44.8277 3.87161 44.7693 4.24121L42.5565 18.2708C42.5125 18.5476 42.7269 18.7972 43.0061 18.7972H45.8141C46.0749 18.7972 46.2981 18.6068 46.3389 18.3476L46.9669 14.3708C47.0245 14.0004 47.3437 13.7284 47.7173 13.7284H49.4485C53.0533 13.7284 55.1325 11.9844 55.6765 8.52841C55.9221 7.01641 55.6861 5.82841 54.9781 4.99641C54.2013 4.08281 52.8229 3.59961 50.9917 3.59961ZM51.6229 8.72361C51.3245 10.6868 49.8245 10.6868 48.3733 10.6868H47.5485L48.1285 7.02041C48.1629 6.79881 48.3533 6.63561 48.5781 6.63561H48.9565C49.9437 6.63561 50.8765 6.63561 51.3581 7.19881C51.6453 7.53481 51.7325 8.03401 51.6229 8.72361Z" fill="#179BD7"/>
<path d="M67.3456 8.66046H64.7272C64.5024 8.66046 64.3112 8.82366 64.2776 9.04526L64.1616 9.77806L63.9776 9.51246C63.4104 8.68926 62.1464 8.41406 60.884 8.41406C57.9888 8.41406 55.5168 10.6069 55.0352 13.6829C54.7856 15.2173 55.14 16.6845 56.0104 17.7077C56.8104 18.6485 57.9512 19.0405 59.3104 19.0405C61.6432 19.0405 62.9368 17.5405 62.9368 17.5405L62.82 18.2685C62.776 18.5469 62.9904 18.7965 63.2712 18.7965H65.6304C66.004 18.7965 66.3224 18.5245 66.3808 18.1541L67.7976 9.18686C67.8408 8.91086 67.6264 8.66046 67.3456 8.66046ZM63.6936 13.7597C63.4424 15.2565 62.2528 16.2613 60.7376 16.2613C59.9784 16.2613 59.3688 16.0173 58.9784 15.5549C58.5912 15.0957 58.4456 14.4421 58.5672 13.7141C58.8048 12.2301 60.0112 11.1925 61.5032 11.1925C62.2472 11.1925 62.852 11.4397 63.2504 11.9061C63.6512 12.3773 63.8096 13.0349 63.6936 13.7597Z" fill="#179BD7"/>
<path d="M70.4349 3.98326L68.1893 18.2697C68.1453 18.5465 68.3597 18.7961 68.6389 18.7961H70.8965C71.2717 18.7961 71.5901 18.5241 71.6477 18.1537L73.8622 4.12486C73.9062 3.84806 73.6917 3.59766 73.4125 3.59766H70.8845C70.6613 3.59846 70.4693 3.76166 70.4349 3.98326Z" fill="#179BD7"/>
</svg>
