<svg width="25" height="24" viewBox="0 0 25 24" fill="none" xmlns="http://www.w3.org/2000/svg">
<g clip-path="url(#clip0_4705_205196)">
<g filter="url(#filter0_f_4705_205196)">
<ellipse cx="12.5345" cy="24.7142" rx="7.28448" ry="0.68292" fill="url(#paint0_radial_4705_205196)"/>
</g>
<g style="mix-blend-mode:multiply" opacity="0.5" filter="url(#filter1_f_4705_205196)">
<ellipse cx="12.5346" cy="24.2589" rx="3.18696" ry="0.22764" fill="url(#paint1_radial_4705_205196)"/>
</g>
<path d="M3.42969 3.04976L12.5353 -0.0976562L21.6409 3.04976V10.7657C21.5805 13.6222 20.6865 16.3989 19.0687 18.7555C17.4509 21.112 15.1796 22.9459 12.5332 24.0322C9.88749 22.9454 7.61689 21.1113 5.99983 18.7548C4.38277 16.3983 3.48955 13.6217 3.42969 10.7657V3.04976Z" fill="#84C888"/>
<path d="M3.42969 3.04976L12.5353 -0.0976562L21.6409 3.04976V10.7657C21.5805 13.6222 20.6865 16.3989 19.0687 18.7555C17.4509 21.112 15.1796 22.9459 12.5332 24.0322C9.88749 22.9454 7.61689 21.1113 5.99983 18.7548C4.38277 16.3983 3.48955 13.6217 3.42969 10.7657V3.04976Z" fill="url(#paint2_radial_4705_205196)"/>
<g filter="url(#filter2_i_4705_205196)">
<path d="M5.25 4.73325L12.5345 2.17969L19.819 4.73325V10.9934C19.7706 13.3109 19.0555 15.5637 17.7612 17.4756C16.467 19.3875 14.6499 20.8754 12.5328 21.7567C10.4162 20.875 8.59976 19.387 7.30611 17.4751C6.01247 15.5632 5.29789 13.3105 5.25 10.9934V4.73325Z" fill="url(#paint3_radial_4705_205196)"/>
</g>
<g style="mix-blend-mode:hard-light">
<path d="M12.5345 2.66213L19.3637 5.0561V10.9885C19.3163 13.217 18.6282 15.3827 17.3842 17.2204C16.1752 19.0063 14.4925 20.4068 12.5329 21.2618C10.5737 20.4064 8.89158 19.0058 7.68319 17.2199C6.43979 15.3823 5.75222 13.2168 5.70528 10.9886V5.0561L12.5345 2.66213Z" stroke="url(#paint4_radial_4705_205196)" stroke-width="0.910561" stroke-miterlimit="10" stroke-linecap="round" stroke-linejoin="round"/>
</g>
<g filter="url(#filter3_d_4705_205196)">
<rect x="10.6094" y="6.43945" width="3.64224" height="6.37392" rx="1.82112" stroke="white" stroke-width="0.910561"/>
<rect x="9.24394" y="9.62675" width="6.37392" height="5.46336" fill="white" stroke="white" stroke-width="0.910561" stroke-linejoin="round"/>
<rect x="11.5195" y="11.4473" width="1.82112" height="1.82112" rx="0.910561" fill="#2E7D32"/>
</g>
</g>
<defs>
<filter id="filter0_f_4705_205196" x="2.51832" y="21.2996" width="20.0337" height="6.8286" filterUnits="userSpaceOnUse" color-interpolation-filters="sRGB">
<feFlood flood-opacity="0" result="BackgroundImageFix"/>
<feBlend mode="normal" in="SourceGraphic" in2="BackgroundImageFix" result="shape"/>
<feGaussianBlur stdDeviation="1.36584" result="effect1_foregroundBlur_4705_205196"/>
</filter>
<filter id="filter1_f_4705_205196" x="8.4371" y="23.1207" width="8.19612" height="2.2762" filterUnits="userSpaceOnUse" color-interpolation-filters="sRGB">
<feFlood flood-opacity="0" result="BackgroundImageFix"/>
<feBlend mode="normal" in="SourceGraphic" in2="BackgroundImageFix" result="shape"/>
<feGaussianBlur stdDeviation="0.45528" result="effect1_foregroundBlur_4705_205196"/>
</filter>
<filter id="filter2_i_4705_205196" x="5.25" y="2.17969" width="14.5703" height="20.4867" filterUnits="userSpaceOnUse" color-interpolation-filters="sRGB">
<feFlood flood-opacity="0" result="BackgroundImageFix"/>
<feBlend mode="normal" in="SourceGraphic" in2="BackgroundImageFix" result="shape"/>
<feColorMatrix in="SourceAlpha" type="matrix" values="0 0 0 0 0 0 0 0 0 0 0 0 0 0 0 0 0 0 127 0" result="hardAlpha"/>
<feOffset dy="0.910561"/>
<feGaussianBlur stdDeviation="0.910561"/>
<feComposite in2="hardAlpha" operator="arithmetic" k2="-1" k3="1"/>
<feColorMatrix type="matrix" values="0 0 0 0 0 0 0 0 0 0 0 0 0 0 0 0 0 0 0.25 0"/>
<feBlend mode="normal" in2="shape" result="effect1_innerShadow_4705_205196"/>
</filter>
<filter id="filter3_d_4705_205196" x="6.96794" y="5.07381" width="12.7485" height="15.0239" filterUnits="userSpaceOnUse" color-interpolation-filters="sRGB">
<feFlood flood-opacity="0" result="BackgroundImageFix"/>
<feColorMatrix in="SourceAlpha" type="matrix" values="0 0 0 0 0 0 0 0 0 0 0 0 0 0 0 0 0 0 127 0" result="hardAlpha"/>
<feOffset dx="0.910561" dy="1.82112"/>
<feGaussianBlur stdDeviation="1.36584"/>
<feComposite in2="hardAlpha" operator="out"/>
<feColorMatrix type="matrix" values="0 0 0 0 0.0996528 0 0 0 0 0.341667 0 0 0 0 0.111907 0 0 0 1 0"/>
<feBlend mode="normal" in2="BackgroundImageFix" result="effect1_dropShadow_4705_205196"/>
<feBlend mode="normal" in="SourceGraphic" in2="effect1_dropShadow_4705_205196" result="shape"/>
</filter>
<radialGradient id="paint0_radial_4705_205196" cx="0" cy="0" r="1" gradientUnits="userSpaceOnUse" gradientTransform="translate(12.5345 24.4865) rotate(-180) scale(6.60156 70.4167)">
<stop stop-color="#A5A5A5"/>
<stop offset="1" stop-color="#A5A5A5" stop-opacity="0"/>
</radialGradient>
<radialGradient id="paint1_radial_4705_205196" cx="0" cy="0" r="1" gradientUnits="userSpaceOnUse" gradientTransform="translate(12.5346 24.183) rotate(-180) scale(2.88818 23.4722)">
<stop stop-color="#A5A5A5"/>
<stop offset="1" stop-color="#A5A5A5" stop-opacity="0"/>
</radialGradient>
<radialGradient id="paint2_radial_4705_205196" cx="0" cy="0" r="1" gradientUnits="userSpaceOnUse" gradientTransform="translate(7.98249 1.72346) rotate(69.6051) scale(18.9434 14.2969)">
<stop offset="0.225447" stop-color="#E8FFE9"/>
<stop offset="0.981932" stop-color="#90C993"/>
</radialGradient>
<radialGradient id="paint3_radial_4705_205196" cx="0" cy="0" r="1" gradientUnits="userSpaceOnUse" gradientTransform="translate(12.3541 11.2293) rotate(90) scale(9.31978 9.19926)">
<stop stop-color="#54A057"/>
<stop offset="0.89404" stop-color="#206724"/>
</radialGradient>
<radialGradient id="paint4_radial_4705_205196" cx="0" cy="0" r="1" gradientUnits="userSpaceOnUse" gradientTransform="translate(7.07112 0.813846) rotate(61.0846) scale(27.3064 20.3045)">
<stop stop-color="#E8FFE9" stop-opacity="0.48"/>
<stop offset="1" stop-color="#0A1F0B"/>
</radialGradient>
<clipPath id="clip0_4705_205196">
<rect width="24" height="24" fill="white" transform="translate(0.5)"/>
</clipPath>
</defs>
</svg>
