<svg width="20" height="20" viewBox="0 0 20 20" fill="none" xmlns="http://www.w3.org/2000/svg">
<path d="M5.49935 2.91602C6.35503 2.91602 7.1732 3.11599 7.95387 3.51593C8.73454 3.91586 9.41636 4.47747 9.99935 5.20077C10.5823 4.47747 11.2642 3.91586 12.0448 3.51593C12.8255 3.11599 13.6437 2.91602 14.4994 2.91602C15.9153 2.91602 17.1165 3.40925 18.103 4.39572C19.0894 5.38218 19.5827 6.58338 19.5827 7.99933C19.5827 8.54277 19.4999 9.09611 19.3342 9.65933C19.1687 10.2225 18.9167 10.791 18.5784 11.3647C18.4643 11.2224 18.3344 11.0986 18.1889 10.9933C18.0433 10.888 17.8896 10.7992 17.728 10.7269C17.9958 10.2501 18.1974 9.78594 18.3327 9.33454C18.468 8.88315 18.5357 8.43808 18.5357 7.99933C18.5357 6.87433 18.1442 5.92036 17.3613 5.13741C16.5783 4.35447 15.6244 3.963 14.4994 3.963C13.6845 3.963 12.9172 4.20623 12.1973 4.6927C11.4774 5.17916 10.7447 5.89177 9.99935 6.83052C9.25398 5.88892 8.52134 5.1756 7.80143 4.69056C7.08152 4.20552 6.31416 3.963 5.49935 3.963C4.37435 3.963 3.42038 4.35447 2.63743 5.13741C1.85449 5.92036 1.46302 6.87433 1.46302 7.99933C1.46302 8.4452 1.53068 8.89607 1.66602 9.35191C1.80135 9.80776 2.00025 10.2688 2.26272 10.7349C2.10106 10.8126 1.949 10.9051 1.80654 11.0124C1.66409 11.1198 1.53536 11.2428 1.42033 11.3813C1.08199 10.8236 0.830036 10.2599 0.664453 9.69031C0.498828 9.12068 0.416016 8.55702 0.416016 7.99933C0.416016 6.58338 0.909252 5.38218 1.89572 4.39572C2.8822 3.40925 4.0834 2.91602 5.49935 2.91602ZM1.0357 17.932C0.863606 17.932 0.717307 17.8717 0.596807 17.7512C0.47628 17.6307 0.416016 17.4844 0.416016 17.3124V17.0175C0.416016 16.4858 0.692495 16.0543 1.24545 15.7231C1.7984 15.392 2.53003 15.2264 3.44035 15.2264C3.6004 15.2264 3.75718 15.2317 3.91066 15.2424C4.06415 15.2531 4.21194 15.27 4.35404 15.2931C4.23691 15.5163 4.14959 15.7506 4.09206 15.9961C4.03453 16.2415 4.00577 16.5013 4.00577 16.7753V17.932H1.0357ZM6.07106 17.932C5.88278 17.932 5.72654 17.8696 5.60235 17.7447C5.47814 17.6198 5.41604 17.465 5.41604 17.2803V16.807C5.41604 16.0111 5.83778 15.3692 6.68127 14.8815C7.52474 14.3938 8.62971 14.15 9.99618 14.15C11.3754 14.15 12.4846 14.3938 13.3239 14.8815C14.1631 15.3692 14.5827 16.0111 14.5827 16.807V17.2803C14.5827 17.465 14.5202 17.6198 14.3954 17.7447C14.2705 17.8696 14.1157 17.932 13.931 17.932H6.07106ZM15.9929 17.932V16.7753C15.9929 16.5013 15.9636 16.2415 15.9051 15.9961C15.8465 15.7506 15.7597 15.515 15.6446 15.2894C15.7867 15.2641 15.9343 15.2473 16.0872 15.2389C16.2402 15.2306 16.3979 15.2264 16.5603 15.2264C17.465 15.2264 18.1949 15.392 18.75 15.7231C19.3051 16.0543 19.5827 16.4858 19.5827 17.0175V17.3124C19.5827 17.4844 19.5224 17.6307 19.4019 17.7512C19.2814 17.8717 19.1351 17.932 18.963 17.932H15.9929ZM9.99935 15.197C8.96586 15.197 8.1238 15.3454 7.47316 15.6422C6.82252 15.939 6.49115 16.3134 6.47904 16.7653V16.885H13.525V16.7515C13.5065 16.3095 13.1726 15.9399 12.5234 15.6427C11.8742 15.3456 11.0328 15.197 9.99935 15.197ZM3.43831 14.5186C3.07125 14.5186 2.76023 14.3888 2.50524 14.1294C2.25027 13.8699 2.12279 13.5576 2.12279 13.1926C2.12279 12.8275 2.25068 12.5157 2.50647 12.257C2.76228 11.9984 3.07371 11.869 3.44077 11.869C3.80782 11.869 4.12018 11.9988 4.37783 12.2582C4.63548 12.5177 4.76431 12.83 4.76431 13.195C4.76431 13.5601 4.63457 13.8719 4.3751 14.1306C4.11563 14.3892 3.80336 14.5186 3.43831 14.5186ZM16.5579 14.5186C16.1909 14.5186 15.8785 14.3888 15.6209 14.1294C15.3632 13.8699 15.2344 13.5576 15.2344 13.1926C15.2344 12.8275 15.3641 12.5157 15.6236 12.257C15.8831 11.9984 16.1953 11.869 16.5604 11.869C16.9274 11.869 17.2385 11.9988 17.4935 12.2582C17.7484 12.5177 17.8759 12.83 17.8759 13.195C17.8759 13.5601 17.748 13.8719 17.4922 14.1306C17.2364 14.3892 16.925 14.5186 16.5579 14.5186ZM9.99935 13.525C9.39839 13.525 8.88758 13.3146 8.46691 12.894C8.04625 12.4733 7.83591 11.9625 7.83591 11.3615C7.83591 10.7606 8.04625 10.2498 8.46691 9.82912C8.88758 9.40845 9.39839 9.19812 9.99935 9.19812C10.6003 9.19812 11.1111 9.40845 11.5318 9.82912C11.9525 10.2498 12.1628 10.7606 12.1628 11.3615C12.1628 11.9625 11.9525 12.4733 11.5318 12.894C11.1111 13.3146 10.6003 13.525 9.99935 13.525ZM10.0007 10.2451C9.68144 10.2451 9.4153 10.3511 9.20233 10.5631C8.98937 10.7751 8.88289 11.0408 8.88289 11.3601C8.88289 11.6795 8.98891 11.9456 9.20093 12.1586C9.41296 12.3715 9.67864 12.478 9.99795 12.478C10.3173 12.478 10.5834 12.372 10.7964 12.16C11.0093 11.9479 11.1158 11.6823 11.1158 11.363C11.1158 11.0436 11.0098 10.7775 10.7978 10.5645C10.5857 10.3516 10.3201 10.2451 10.0007 10.2451Z" fill="#78726E"/>
</svg>
