<svg width="36" height="24" viewBox="0 0 36 24" fill="none" xmlns="http://www.w3.org/2000/svg">
<g clip-path="url(#clip0_1341_373681)">
<path d="M25.6357 2H10.3643C9.05855 2 8 3.05855 8 4.36434V19.6357C8 20.9414 9.05855 22 10.3643 22H25.6357C26.9414 22 28 20.9414 28 19.6357V4.36434C28 3.05855 26.9414 2 25.6357 2Z" fill="#3396CD"/>
<path d="M22.9287 6.06982C23.359 6.77913 23.552 7.51052 23.552 8.43417C23.552 11.3799 21.0376 15.2055 18.9969 17.8915H14.3369L12.4683 6.71517L16.55 6.32758L17.5427 14.2799C18.4652 12.7753 19.6059 10.4109 19.6059 8.80006C19.6059 7.9175 19.4547 7.3175 19.2183 6.82331L22.9287 6.06982Z" fill="white"/>
</g>
<defs>
<clipPath id="clip0_1341_373681">
<rect width="20" height="20" fill="white" transform="translate(8 2)"/>
</clipPath>
</defs>
</svg>
