<svg width="16" height="16" viewBox="0 0 16 16" fill="none" xmlns="http://www.w3.org/2000/svg">
<path fill="white" d="M6.38154 11.8081C6.28202 11.8081 6.18462 11.7888 6.08933 11.7502C5.99404 11.7115 5.90352 11.6493 5.81778 11.5636L3.00111 8.7469C2.84918 8.59497 2.77599 8.40427 2.78154 8.1748C2.7871 7.94534 2.86584 7.75464 3.01778 7.6027C3.16971 7.45077 3.35896 7.3748 3.58553 7.3748C3.81209 7.3748 4.00134 7.45077 4.15328 7.6027L6.41488 9.86429L11.8598 4.41937C12.0117 4.26744 12.1969 4.1908 12.4152 4.18947C12.6336 4.18815 12.8201 4.26478 12.9747 4.41937C13.1266 4.5713 13.2026 4.75711 13.2026 4.9768C13.2026 5.19648 13.1266 5.38229 12.9747 5.53422L6.94531 11.5636C6.85957 11.6493 6.76905 11.7115 6.67376 11.7502C6.57847 11.7888 6.48107 11.8081 6.38154 11.8081Z" />
</svg>
