<svg width="30" height="20" viewBox="0 0 30 20" fill="none" xmlns="http://www.w3.org/2000/svg">
<rect x="0.375" y="0.375" width="29.25" height="19.25" rx="3.625" fill="white" stroke="#D9D9D9" stroke-width="0.75"/>
<path fill-rule="evenodd" clip-rule="evenodd" d="M9.17574 13.7632H7.26376L5.83001 8.1979C5.76196 7.9419 5.61746 7.71558 5.40492 7.60891C4.87448 7.34085 4.28998 7.12752 3.65234 7.01992V6.80566H6.73239C7.15749 6.80566 7.47631 7.12752 7.52944 7.50132L8.27335 11.5157L10.1844 6.80566H12.0432L9.17574 13.7632ZM13.1048 13.7632H11.2991L12.7859 6.80566H14.5917L13.1048 13.7632ZM16.9314 8.73243C16.9846 8.3577 17.3034 8.14344 17.6753 8.14344C18.2598 8.08964 18.8966 8.19724 19.4279 8.46437L19.7467 6.96639C19.2154 6.75213 18.6309 6.64453 18.1004 6.64453C16.3479 6.64453 15.0726 7.60825 15.0726 8.94576C15.0726 9.96328 15.9759 10.4975 16.6135 10.8194C17.3034 11.1403 17.5691 11.3546 17.5159 11.6755C17.5159 12.1569 16.9846 12.3712 16.4541 12.3712C15.8165 12.3712 15.1789 12.2107 14.5953 11.9427L14.2765 13.4416C14.9141 13.7087 15.604 13.8163 16.2416 13.8163C18.2067 13.8692 19.4279 12.9064 19.4279 11.4613C19.4279 9.64142 16.9314 9.53475 16.9314 8.73243ZM25.7423 13.7632L24.3085 6.80566H22.7685C22.4497 6.80566 22.1308 7.01992 22.0246 7.34085L19.3696 13.7632H21.2285L21.5995 12.7466H23.8834L24.096 13.7632H25.7423ZM23.0373 8.67793L23.5677 11.3001H22.0808L23.0373 8.67793Z" fill="#172B85"/>
</svg>
