<svg width="36" height="24" viewBox="0 0 36 24" fill="none" xmlns="http://www.w3.org/2000/svg">
<g clip-path="url(#clip0_4276_225082)">
<path d="M15 12C15 7.02944 19.0294 3 24 3C28.9705 3 33 7.02944 33 12C33 16.9705 28.9705 21 24 21C19.0294 21 15 16.9705 15 12Z" fill="#9336FF"/>
<path d="M24 14.25L27.75 12L24 10.5V14.25Z" fill="#D7B6FF"/>
<path d="M24 14.25L20.25 12L24 10.5V14.25Z" fill="#E3CCFF"/>
<path d="M24 10.5V6L27.75 12L24 10.5Z" fill="#F0E3FF"/>
<path d="M24 10.5V6L20.25 12L24 10.5Z" fill="white"/>
<path d="M24 18L27.75 12.75L24 15V18Z" fill="#F0E3FF"/>
<path d="M24 18L20.25 12.75L24 15V18Z" fill="white"/>
</g>
<path d="M21.5 12C21.5 17.2467 17.2467 21.5 12 21.5C6.75331 21.5 2.5 17.2467 2.5 12C2.5 6.75331 6.75331 2.5 12 2.5C17.2467 2.5 21.5 6.75331 21.5 12Z" fill="#F7931A" stroke="white"/>
<path d="M15.853 10.5848C15.7231 11.4831 15.2517 11.9197 14.6287 12.0754C15.481 12.5432 15.9126 13.2646 15.4919 14.5223C14.9694 16.0841 13.7464 16.2225 12.1226 15.9064L11.7191 17.5846L10.7676 17.3385L11.1652 15.6815C10.9118 15.6163 10.6591 15.5482 10.4071 15.4772L10.0076 17.1408L9.0573 16.8946L9.4607 15.2123C9.23788 15.1531 9.01249 15.0906 8.78197 15.0306L7.54297 14.7092L8.02193 13.5501C8.02193 13.5501 8.72308 13.7437 8.71347 13.7297C8.98369 13.7982 9.10407 13.6113 9.15209 13.4868L9.78856 10.8331L9.88974 10.859C9.85741 10.8456 9.82425 10.8345 9.79049 10.8257L10.2451 8.93114C10.2579 8.71619 10.1894 8.44603 9.80329 8.34554C9.81866 8.33556 9.11239 8.1672 9.11239 8.1672L9.37172 7.08654L10.6844 7.42724L10.6831 7.4319C10.8803 7.48314 11.0839 7.53172 11.2914 7.5803L11.6903 5.91797L12.6418 6.16419L12.2506 7.79452C12.5061 7.85441 12.7628 7.91563 13.0126 7.98084L13.4012 6.36184L14.3534 6.60806L13.9545 8.27106C15.1557 8.7036 16.0323 9.35773 15.853 10.5848V10.5848ZM13.6586 13.8356C13.9731 12.5246 11.9029 12.1986 11.2575 12.0308L10.7241 14.2581C11.3695 14.4245 13.359 15.0919 13.6599 13.8349L13.6586 13.8356ZM13.9705 10.5775C14.2561 9.3843 12.5246 9.1288 11.9874 8.98972L11.5027 11.0107C12.0399 11.1505 13.6958 11.7207 13.9705 10.5775Z" fill="white"/>
<defs>
<clipPath id="clip0_4276_225082">
<rect width="18" height="18" fill="white" transform="translate(15 3)"/>
</clipPath>
</defs>
</svg>
