<svg width="40" height="40" viewBox="0 0 40 40" fill="none" xmlns="http://www.w3.org/2000/svg">
<rect width="40" height="40" rx="8" fill="white"/>
<path d="M18.9798 17.2141L19.3038 17.5412L19.6276 17.2139L20.5956 16.2356C20.5956 16.2356 20.5956 16.2355 20.5957 16.2355C21.2845 15.5396 22.218 15.1494 23.1906 15.1491C24.1631 15.1489 25.0969 15.5387 25.7861 16.2343C26.4755 16.93 26.8637 17.8747 26.8639 18.8607C26.8642 19.8468 26.4764 20.7916 25.7874 21.4877L25.7871 21.488L24.9145 22.371L24.9142 22.3713L19.3055 28.0344L12.8217 21.4876C12.1327 20.7919 11.7448 19.8474 11.7448 18.8616C11.7448 17.8759 12.1327 16.9314 12.8217 16.2357C13.5106 15.5401 14.444 15.1501 15.4163 15.1501C16.3886 15.1501 17.3219 15.5401 18.0108 16.2357L18.9798 17.2141Z" fill="#F4775E" stroke="black" stroke-width="0.911534"/>
<path d="M27.0214 16.6412C26.8846 16.5034 26.7388 16.3751 26.5849 16.2571C26.2166 15.7679 25.7488 15.364 25.2131 15.0724C24.6773 14.7809 24.086 14.6085 23.4788 14.5668C22.8715 14.5252 22.2625 14.6152 21.6927 14.8309C21.1228 15.0466 20.6052 15.383 20.1747 15.8174L19.3027 16.6988L18.4298 15.8174C17.6303 15.0101 16.546 14.5566 15.4154 14.5566C14.2847 14.5566 13.2004 15.0101 12.401 15.8174C11.6015 16.6246 11.1523 17.7195 11.1523 18.8611C11.1523 20.0027 11.6015 21.0975 12.401 21.9047L13.2739 22.7862L13.699 23.2163L14.0888 23.609L16.7809 26.3291L19.3046 28.8764L20.1205 29.6992L26.1484 23.6119L27.0214 22.7285C27.8201 21.9209 28.2688 20.8262 28.2688 19.6849C28.2688 18.5435 27.8201 17.4488 27.0214 16.6412ZM12.593 16.0123C13.3419 15.2571 14.357 14.8329 15.4154 14.8329C16.4738 14.8329 17.4889 15.2571 18.2377 16.0123L19.1107 16.8937L19.3008 17.0857L19.491 16.8937L20.363 16.0123C21.1184 15.2899 22.1231 14.8936 23.1635 14.9078C24.2038 14.922 25.1976 15.3455 25.9334 16.0883C26.6691 16.8311 27.0888 17.8344 27.103 18.8849C27.1172 19.9353 26.7249 20.9499 26.0096 21.7127L25.1376 22.5951L19.3046 28.4885L13.466 22.5932L12.593 21.7117C11.8451 20.9556 11.425 19.9307 11.425 18.862C11.425 17.7934 11.8451 16.7684 12.593 16.0123Z" fill="black"/>
<line x1="8.26284" y1="16.1982" x2="7.38338" y2="15.6119" stroke="black" stroke-width="1.31666" stroke-linecap="round"/>
<line x1="30.4248" y1="15.7609" x2="31.3042" y2="15.1746" stroke="black" stroke-width="1.31666" stroke-linecap="round"/>
<line x1="13.5104" y1="12.0664" x2="11.8081" y2="10.3641" stroke="black" stroke-width="1.31666" stroke-linecap="round"/>
<line x1="26.1613" y1="11.8029" x2="27.3463" y2="10.223" stroke="black" stroke-width="1.31666" stroke-linecap="round"/>
<line x1="19.7089" y1="10.0917" x2="19.7089" y2="7.45835" stroke="black" stroke-width="1.31666" stroke-linecap="round"/>
</svg>
