<svg width="16" height="17" viewBox="0 0 16 17" fill="none" xmlns="http://www.w3.org/2000/svg">
<path d="M4.625 2.5C4.83211 2.5 5 2.66789 5 2.875V3.25H11V2.875C11 2.66789 11.1679 2.5 11.375 2.5C11.5821 2.5 11.75 2.66789 11.75 2.875V3.25H12.5C13.3284 3.25 14 3.92157 14 4.75V13C14 13.8284 13.3284 14.5 12.5 14.5H3.5C2.67157 14.5 2 13.8284 2 13V4.75C2 3.92157 2.67157 3.25 3.5 3.25H4.25V2.875C4.25 2.66789 4.41789 2.5 4.625 2.5ZM3.5 4C3.08579 4 2.75 4.33579 2.75 4.75V5.5H13.25V4.75C13.25 4.33579 12.9142 4 12.5 4H3.5ZM13.25 6.25H2.75V13C2.75 13.4142 3.08579 13.75 3.5 13.75H12.5C12.9142 13.75 13.25 13.4142 13.25 13V6.25Z" fill="#515358"/>
<path d="M10.25 8.125C10.25 7.91789 10.4179 7.75 10.625 7.75H11.375C11.5821 7.75 11.75 7.91789 11.75 8.125V8.875C11.75 9.08211 11.5821 9.25 11.375 9.25H10.625C10.4179 9.25 10.25 9.08211 10.25 8.875V8.125Z" fill="#515358"/>
</svg>
