<svg width="36" height="24" viewBox="0 0 36 24" fill="none" xmlns="http://www.w3.org/2000/svg">
<g clip-path="url(#clip0_4440_50001)">
<path d="M13.3327 21.7321L13.7005 19.3698L12.8812 19.3506H8.96875L11.6877 1.91909C11.6961 1.86647 11.7236 1.8174 11.7637 1.78256C11.8037 1.74772 11.8551 1.72852 11.9085 1.72852H18.5055C20.6955 1.72852 22.2069 2.18932 22.996 3.09883C23.3659 3.52549 23.6015 3.97136 23.7155 4.46203C23.835 4.97687 23.8371 5.59198 23.7204 6.3422L23.712 6.39696V6.87767L24.0819 7.08958C24.3935 7.25669 24.641 7.44798 24.8309 7.667C25.1474 8.0318 25.352 8.49545 25.4386 9.04514C25.5279 9.61047 25.4983 10.2832 25.352 11.0448C25.1833 11.9209 24.9104 12.6839 24.5418 13.3082C24.2029 13.8835 23.771 14.3607 23.2583 14.7305C22.7688 15.0818 22.1872 15.3484 21.5296 15.5191C20.8924 15.6869 20.1659 15.7715 19.3691 15.7715H18.8557C18.4886 15.7715 18.132 15.9052 17.8521 16.1449C17.5715 16.3895 17.3858 16.7237 17.3288 17.0892L17.2902 17.3018L16.6403 21.4654L16.6108 21.6183C16.603 21.6666 16.5897 21.6908 16.57 21.7072C16.5524 21.7221 16.5271 21.7321 16.5025 21.7321H13.3327Z" fill="#253B80"/>
<path d="M24.4316 6.45117C24.4119 6.57846 24.3894 6.70859 24.364 6.84228C23.4941 11.3585 20.5177 12.9187 16.7164 12.9187H14.7809C14.3161 12.9187 13.9243 13.2601 13.8519 13.7237L12.8609 20.0782L12.5803 21.8794C12.5332 22.1838 12.7653 22.4583 13.0691 22.4583H16.5019C16.9084 22.4583 17.2537 22.1596 17.3177 21.7543L17.3515 21.5779L17.9978 17.4307L18.0393 17.2032C18.1026 16.7964 18.4486 16.4977 18.8551 16.4977H19.3685C22.6944 16.4977 25.298 15.1324 26.059 11.1815C26.3769 9.53099 26.2123 8.15286 25.3712 7.18362C25.1166 6.89135 24.8008 6.64886 24.4316 6.45117Z" fill="#0070E0"/>
<path d="M23.5212 6.08526C23.3883 6.04615 23.2511 6.0106 23.1105 5.9786C22.9691 5.94731 22.8242 5.91958 22.6751 5.8954C22.1533 5.81006 21.5815 5.76953 20.9689 5.76953H15.7983C15.671 5.76953 15.55 5.79869 15.4417 5.85131C15.2033 5.96722 15.0261 6.19549 14.9832 6.47495L13.8832 13.5192L13.8516 13.7247C13.924 13.2611 14.3157 12.9198 14.7806 12.9198H16.7161C20.5174 12.9198 23.4938 11.3589 24.3637 6.84331C24.3898 6.70962 24.4116 6.57949 24.4313 6.4522C24.2111 6.33415 23.9727 6.23318 23.716 6.14713C23.6527 6.1258 23.5873 6.10518 23.5212 6.08526Z" fill="#222D65"/>
<path d="M14.9841 6.47484C15.027 6.19538 15.2043 5.96711 15.4427 5.85191C15.5517 5.79929 15.672 5.77013 15.7993 5.77013H20.9699C21.5825 5.77013 22.1543 5.81067 22.6761 5.896C22.8252 5.92018 22.9701 5.94791 23.1114 5.9792C23.2521 6.0112 23.3892 6.04676 23.5222 6.08587C23.5883 6.10578 23.6537 6.1264 23.7177 6.14702C23.9744 6.23307 24.2128 6.33475 24.4329 6.45209C24.6917 4.78311 24.4308 3.64676 23.5383 2.61778C22.5544 1.48498 20.7786 1 18.5063 1H11.9093C11.4452 1 11.0492 1.34133 10.9775 1.80569L8.22968 19.4164C8.17553 19.7648 8.44137 20.0791 8.7888 20.0791H12.8616L13.8842 13.5191L14.9841 6.47484Z" fill="#253B80"/>
</g>
<defs>
<clipPath id="clip0_4440_50001">
<rect width="32" height="21.3333" fill="white" transform="translate(2 1)"/>
</clipPath>
</defs>
</svg>
