<svg width="24" height="24" viewBox="0 0 24 24" fill="none" xmlns="http://www.w3.org/2000/svg">
<path d="M19.0139 20.0481L13.26 14.2943C12.76 14.7071 12.185 15.0302 11.535 15.2635C10.885 15.4968 10.2126 15.6135 9.51769 15.6135C7.80853 15.6135 6.36201 15.0217 5.17814 13.8382C3.99428 12.6546 3.40234 11.2085 3.40234 9.49974C3.40234 7.791 3.99413 6.34433 5.17769 5.15971C6.36126 3.97511 7.80741 3.38281 9.51614 3.38281C11.2249 3.38281 12.6715 3.97475 13.8561 5.15861C15.0408 6.34248 15.6331 7.789 15.6331 9.49816C15.6331 10.2123 15.5132 10.8943 15.2734 11.5443C15.0337 12.1943 14.7138 12.7597 14.3138 13.2405L20.0927 19.0193C20.2311 19.1551 20.3004 19.3217 20.3004 19.5192C20.3004 19.7167 20.2221 19.8937 20.0656 20.0502C19.9221 20.1937 19.7472 20.2654 19.5408 20.2654C19.3344 20.2654 19.1587 20.193 19.0139 20.0481ZM9.51769 14.1136C10.8062 14.1136 11.8975 13.6664 12.7917 12.7722C13.686 11.878 14.1331 10.7866 14.1331 9.49816C14.1331 8.2097 13.686 7.11835 12.7917 6.22411C11.8975 5.32988 10.8062 4.88276 9.51769 4.88276C8.22923 4.88276 7.13788 5.32988 6.24364 6.22411C5.34943 7.11835 4.90232 8.2097 4.90232 9.49816C4.90232 10.7866 5.34943 11.878 6.24364 12.7722C7.13788 13.6664 8.22923 14.1136 9.51769 14.1136Z" fill="#1A1919"/>
</svg>
