<svg width="144" height="24" viewBox="0 0 144 24" fill="none" xmlns="http://www.w3.org/2000/svg">
<path fill-rule="evenodd" clip-rule="evenodd" d="M12 2C6.47715 2 2 6.47715 2 12C2 17.5228 6.47715 22 12 22C17.5228 22 22 17.5228 22 12C22 6.47715 17.5228 2 12 2ZM13.0425 12.4392V17.8798H10.7914V12.4395H9.66683V10.5647H10.7914V9.43898C10.7914 7.9095 11.4265 7 13.2307 7H14.7327V8.87505H13.7938C13.0915 8.87505 13.045 9.13706 13.045 9.62604L13.0425 10.5644H14.7433L14.5443 12.4392H13.0425Z" fill="white"/>
<path fill-rule="evenodd" clip-rule="evenodd" d="M52 2C46.4771 2 42 6.47715 42 12C42 17.5228 46.4771 22 52 22C57.5228 22 62 17.5228 62 12C62 6.47715 57.5228 2 52 2ZM51.7215 10.4742L51.7005 10.1281C51.6376 9.2313 52.1902 8.41215 53.0645 8.09437C53.3862 7.98138 53.9318 7.96726 54.2886 8.06612C54.4285 8.10849 54.6942 8.24972 54.8832 8.37683L55.2259 8.60987L55.6036 8.48982C55.8134 8.42627 56.0932 8.32034 56.2192 8.24972C56.3381 8.18617 56.443 8.15087 56.443 8.17205C56.443 8.2921 56.1842 8.70167 55.9673 8.92765C55.6736 9.24542 55.7575 9.27367 56.352 9.06182C56.7087 8.94177 56.7158 8.94177 56.6458 9.07594C56.6038 9.14656 56.387 9.39372 56.1562 9.61969C55.7645 10.0081 55.7435 10.0505 55.7435 10.3753C55.7435 10.8767 55.5057 11.9218 55.2678 12.4938C54.8272 13.5672 53.8829 14.6758 52.9386 15.2337C51.6096 16.0176 49.8399 16.2153 48.35 15.7563C47.8534 15.6009 47 15.2055 47 15.1348C47 15.1137 47.2588 15.0854 47.5736 15.0784C48.2311 15.0642 48.8886 14.8807 49.4482 14.5558L49.8259 14.3298L49.3922 14.1816C48.7767 13.9697 48.2241 13.4824 48.0842 13.0234C48.0422 12.8752 48.0562 12.8681 48.4479 12.8681L48.8536 12.861L48.5109 12.6986C48.1052 12.4938 47.7344 12.1477 47.5526 11.7947C47.4197 11.5405 47.2518 10.8978 47.3008 10.8484C47.3148 10.8272 47.4617 10.8696 47.6295 10.9261C48.1122 11.1027 48.1751 11.0603 47.8953 10.7637C47.3707 10.227 47.2098 9.42902 47.4617 8.67342L47.5806 8.33447L48.0422 8.79348C48.9865 9.71856 50.0987 10.2694 51.3717 10.4318L51.7215 10.4742Z" fill="white"/>
<path fill-rule="evenodd" clip-rule="evenodd" d="M92 2C86.48 2 82 6.48 82 12C82 17.52 86.48 22 92 22C97.52 22 102 17.52 102 12C102 6.48 97.52 2 92 2ZM96.72 13.95C96.7 14.46 96.62 14.8 96.5 15.1C96.38 15.41 96.22 15.68 95.95 15.94C95.68 16.2 95.42 16.37 95.11 16.49C94.81 16.61 94.47 16.69 93.96 16.71C93.45 16.73 93.29 16.74 92 16.74C90.71 16.74 90.55 16.74 90.04 16.72C89.53 16.7 89.19 16.62 88.89 16.5C88.58 16.38 88.31 16.22 88.05 15.95C87.79 15.69 87.62 15.42 87.5 15.11C87.38 14.81 87.3 14.46 87.28 13.96C87.26 13.45 87.25 13.29 87.25 12C87.25 10.71 87.25 10.55 87.27 10.04C87.29 9.53 87.37 9.19 87.49 8.89C87.61 8.58 87.77 8.31 88.04 8.05C88.3 7.79 88.57 7.62 88.88 7.5C89.18 7.38 89.53 7.3 90.03 7.28C90.54 7.26 90.7 7.25 91.99 7.25C93.28 7.25 93.44 7.25 93.95 7.27C94.46 7.29 94.8 7.37 95.1 7.49C95.41 7.61 95.68 7.77 95.94 8.04C96.2 8.3 96.37 8.57 96.49 8.88C96.61 9.18 96.69 9.53 96.71 10.03C96.73 10.54 96.74 10.7 96.74 11.99C96.74 13.28 96.74 13.44 96.72 13.95ZM93.58 12C93.58 12.87 92.87 13.58 92 13.59C91.13 13.59 90.42 12.88 90.41 12.01C90.41 11.14 91.12 10.43 91.99 10.42C92.86 10.42 93.57 11.13 93.58 12ZM95.86 10.08C95.84 9.62 95.76 9.37 95.7 9.2C95.61 8.98 95.51 8.82 95.34 8.65C95.17 8.48 95.02 8.38 94.79 8.3C94.62 8.24 94.37 8.16 93.91 8.14C93.41 8.12 93.26 8.11 91.99 8.12C90.72 8.12 90.57 8.12 90.07 8.15C89.61 8.17 89.36 8.25 89.19 8.32C88.97 8.41 88.81 8.51 88.64 8.68C88.47 8.85 88.37 9 88.29 9.23C88.23 9.4 88.15 9.65 88.13 10.11C88.11 10.61 88.1 10.76 88.11 12.03C88.11 13.3 88.11 13.45 88.14 13.95C88.16 14.41 88.24 14.66 88.31 14.83C88.4 15.05 88.5 15.21 88.67 15.38C88.84 15.55 88.99 15.65 89.22 15.73C89.39 15.79 89.64 15.87 90.1 15.89C90.6 15.91 90.75 15.92 92.02 15.91C93.29 15.9 93.44 15.91 93.94 15.88C94.4 15.86 94.65 15.78 94.82 15.71C95.04 15.62 95.2 15.52 95.37 15.35C95.54 15.18 95.64 15.03 95.72 14.8C95.78 14.63 95.86 14.38 95.88 13.92C95.9 13.42 95.91 13.27 95.9 12C95.9 10.73 95.9 10.58 95.87 10.08H95.86ZM92 14.44C90.65 14.44 89.56 13.35 89.56 12.01C89.56 10.66 90.65 9.57 91.99 9.57C93.34 9.57 94.43 10.66 94.43 12C94.43 13.34 93.34 14.44 92 14.44ZM94.53 10.03C94.22 10.03 93.96 9.78 93.96 9.46C93.96 9.15 94.21 8.89 94.53 8.89C94.84 8.89 95.1 9.14 95.1 9.46C95.1 9.78 94.85 10.03 94.53 10.03Z" fill="white"/>
<path fill-rule="evenodd" clip-rule="evenodd" d="M132 2C126.48 2 122 6.48 122 12C122 17.52 126.48 22 132 22C137.52 22 142 17.52 142 12C142 6.48 137.52 2 132 2ZM129.68 16.82H127.85V10.11H129.68V16.82ZM128.77 9.34C128.18 9.34 127.7 8.86 127.7 8.26C127.7 7.66 128.18 7.18 128.77 7.18C129.36 7.18 129.84 7.66 129.84 8.26C129.84 8.86 129.36 9.34 128.77 9.34ZM137 16.82H135.17V13.4C135.17 11.35 132.73 11.5 132.73 13.4V16.82H130.9V10.11H132.73V11.19C133.58 9.61 137 9.5 137 12.7V16.82Z" fill="white"/>
</svg>
