<svg width="82" height="18" viewBox="0 0 82 18" fill="none" xmlns="http://www.w3.org/2000/svg">
<path d="M16.2878 2C16.7849 2.82104 17.0091 3.66672 17.0091 4.73499C17.0091 8.1422 14.1005 12.5684 11.7398 15.6765H6.34798L4.18555 2.746L8.90671 2.29776L10.05 11.4986C11.1183 9.75825 12.4366 7.02327 12.4366 5.15859C12.4366 4.13793 12.2617 3.44273 11.9885 2.87031L16.2878 2Z" fill="white"/>
<path d="M22.4063 7.69352C23.2751 7.69352 25.4623 7.29608 25.4623 6.05297C25.4623 5.45604 25.0402 5.15828 24.5428 5.15828C23.6726 5.15828 22.5307 6.20178 22.4063 7.69352ZM22.3067 10.1555C22.3067 11.6734 23.1508 12.2689 24.2697 12.2689C25.4882 12.2689 26.6548 11.9712 28.1712 11.2005L27.6001 15.079C26.5317 15.601 24.8666 15.9493 23.2504 15.9493C19.1508 15.9493 17.6836 13.463 17.6836 10.3549C17.6836 6.32635 20.0703 2.04883 24.9908 2.04883C27.6999 2.04883 29.2147 3.5666 29.2147 5.68003C29.215 9.08712 24.8421 10.1309 22.3067 10.1555Z" fill="white"/>
<path d="M42.8406 5.03372C42.8406 5.53096 42.7652 6.2522 42.6901 6.72354L41.2734 15.6758H36.6763L37.9686 7.46941C37.9931 7.24682 38.0684 6.79871 38.0684 6.55009C38.0684 5.95316 37.6955 5.80422 37.2471 5.80422C36.6516 5.80422 36.0547 6.07747 35.6571 6.27696L34.1914 15.6759H29.5684L31.6804 2.27282H35.6816L35.7323 3.34262C36.6762 2.72106 37.9192 2.04883 39.6828 2.04883C42.0193 2.04857 42.8406 3.24255 42.8406 5.03372Z" fill="white"/>
<path d="M56.4864 3.51606C57.8031 2.57211 59.0463 2.04883 60.7605 2.04883C63.121 2.04883 63.9421 3.24281 63.9421 5.03397C63.9421 5.53122 63.8669 6.25245 63.7919 6.72379L62.3768 15.676H57.7784L59.0953 7.29621C59.1196 7.07222 59.1705 6.79896 59.1705 6.62564C59.1705 5.95354 58.7974 5.80447 58.3492 5.80447C57.7782 5.80447 57.2074 6.0531 56.7837 6.27721L55.3182 15.6762H50.721L52.0379 7.29634C52.0621 7.07235 52.1115 6.79909 52.1115 6.62577C52.1115 5.95367 51.7383 5.8046 51.2916 5.8046C50.6948 5.8046 50.0992 6.07786 49.7016 6.27734L48.2348 15.6763H43.6133L45.7251 2.2732H49.6774L49.8016 3.39213C50.721 2.72157 51.963 2.04934 53.6279 2.04934C55.0695 2.04883 56.0133 2.67051 56.4864 3.51606Z" fill="white"/>
<path d="M73.0924 7.42052C73.0924 6.32635 72.8187 5.58035 71.9993 5.58035C70.1851 5.58035 69.8125 8.78782 69.8125 10.4286C69.8125 11.6734 70.1608 12.4438 70.98 12.4438C72.6948 12.4438 73.0924 9.06121 73.0924 7.42052ZM65.1406 10.2306C65.1406 6.00383 67.3767 2.04883 72.5215 2.04883C76.3981 2.04883 77.8152 4.33711 77.8152 7.49557C77.8152 11.6733 75.6032 15.9997 70.3344 15.9997C66.4328 15.9997 65.1406 13.4382 65.1406 10.2306Z" fill="white"/>
</svg>
