<svg width="24" height="24" viewBox="0 0 24 24" fill="none" xmlns="http://www.w3.org/2000/svg">
<path d="M12.0039 15.6454C13.0141 15.6454 13.8737 15.2897 14.5825 14.5782C15.2914 13.8667 15.6459 13.0059 15.6459 11.9957C15.6459 10.9855 15.2901 10.1259 14.5787 9.41703C13.8672 8.70814 13.0063 8.35369 11.9961 8.35369C10.9859 8.35369 10.1264 8.70944 9.41747 9.42093C8.70858 10.1324 8.35413 10.9932 8.35413 12.0035C8.35413 13.0137 8.70988 13.8732 9.42137 14.5821C10.1328 15.291 10.9937 15.6454 12.0039 15.6454ZM11.9954 14.5322C11.2906 14.5322 10.693 14.2855 10.2028 13.7922C9.71252 13.2988 9.46739 12.6997 9.46739 11.9949C9.46739 11.2901 9.71407 10.6926 10.2074 10.2023C10.7008 9.71207 11.2999 9.46695 12.0047 9.46695C12.7095 9.46695 13.307 9.71363 13.7973 10.207C14.2875 10.7003 14.5326 11.2994 14.5326 12.0042C14.5326 12.709 14.286 13.3066 13.7926 13.7968C13.2992 14.2871 12.7002 14.5322 11.9954 14.5322ZM12.0006 18.4523C9.98915 18.4523 8.14858 17.9159 6.47888 16.8432C4.80918 15.7705 3.52205 14.338 2.61749 12.5458C2.5762 12.4755 2.54631 12.3925 2.52779 12.2966C2.50926 12.2008 2.5 12.1018 2.5 11.9996C2.5 11.8974 2.50926 11.7983 2.52777 11.7025C2.54628 11.6067 2.57618 11.5236 2.61746 11.4533C3.52204 9.66109 4.809 8.22862 6.47833 7.15593C8.14766 6.08323 9.98804 5.54688 11.9995 5.54688C14.0109 5.54688 15.8514 6.08323 17.5211 7.15593C19.1908 8.22862 20.478 9.66109 21.3825 11.4533C21.4238 11.5236 21.4537 11.6067 21.4722 11.7025C21.4907 11.7983 21.5 11.8974 21.5 11.9996C21.5 12.1018 21.4907 12.2008 21.4722 12.2966C21.4537 12.3925 21.4238 12.4755 21.3825 12.5458C20.478 14.338 19.191 15.7705 17.5217 16.8432C15.8524 17.9159 14.012 18.4523 12.0006 18.4523ZM11.9974 17.2941C13.7975 17.2941 15.4494 16.8152 16.9533 15.8573C18.4572 14.8994 19.6046 13.6135 20.3956 11.9996C19.6046 10.3856 18.458 9.0997 16.9559 8.14184C15.4537 7.18396 13.8027 6.70502 12.0026 6.70502C10.2025 6.70502 8.55059 7.18396 7.04672 8.14184C5.54286 9.0997 4.39226 10.3856 3.59493 11.9996C4.39226 13.6135 5.54199 14.8994 7.04414 15.8573C8.54627 16.8152 10.1974 17.2941 11.9974 17.2941Z" fill="black"/>
</svg>
