<svg width="24" height="24" viewBox="0 0 24 24" fill="none" xmlns="http://www.w3.org/2000/svg">
<path d="M15.2466 12.7493L14.2483 11.7509C14.3038 11.0468 14.0792 10.4472 13.5744 9.95201C13.0696 9.45682 12.4817 9.24394 11.8108 9.31339L10.8124 8.31501C11.0004 8.25839 11.1933 8.21245 11.3909 8.1772C11.5885 8.14193 11.791 8.1243 11.9983 8.1243C12.9576 8.1243 13.7707 8.45764 14.4373 9.1243C15.104 9.79097 15.4373 10.604 15.4373 11.5634C15.4373 11.7984 15.4197 12.0209 15.3844 12.2308C15.3492 12.4408 15.3033 12.6136 15.2466 12.7493ZM17.8764 15.3422L16.9149 14.4176C17.4149 14.0287 17.8594 13.6051 18.2483 13.1467C18.6371 12.6884 18.9705 12.1606 19.2483 11.5634C18.5677 10.1745 17.5816 9.08075 16.2899 8.28214C14.9983 7.48352 13.5677 7.08422 11.9983 7.08422C11.5955 7.08422 11.224 7.10852 10.8837 7.15714C10.5434 7.20575 10.2066 7.27866 9.87326 7.37589L8.8188 6.32143C9.34551 6.11202 9.86955 5.96459 10.3909 5.87911C10.9123 5.79364 11.4481 5.75091 11.9983 5.75091C13.8508 5.75091 15.5367 6.23488 17.0559 7.20282C18.5751 8.17077 19.7199 9.45655 20.4902 11.0602C20.5127 11.1243 20.5343 11.2004 20.5551 11.2886C20.5759 11.3767 20.5864 11.4683 20.5864 11.5634C20.5864 11.6585 20.5773 11.7501 20.5591 11.8382C20.541 11.9264 20.518 12.0025 20.4902 12.0666C20.1815 12.7023 19.8078 13.2952 19.3692 13.8454C18.9307 14.3956 18.4331 14.8946 17.8764 15.3422ZM17.9021 19.7653L15.0319 16.8999C14.6046 17.058 14.1345 17.1838 13.6217 17.2773C13.1088 17.3708 12.5677 17.4175 11.9983 17.4175C10.135 17.4175 8.4478 16.9266 6.93657 15.9448C5.42536 14.9629 4.28194 13.6702 3.5063 12.0666C3.48387 11.9886 3.46224 11.909 3.44141 11.8278C3.42057 11.7466 3.41016 11.6585 3.41016 11.5634C3.41016 11.4683 3.4171 11.3754 3.43099 11.2846C3.44488 11.1937 3.46998 11.1163 3.5063 11.0522C3.80545 10.4389 4.17432 9.86387 4.61289 9.32701C5.05145 8.79015 5.52715 8.31713 6.03997 7.90795L4.22105 6.0762C4.09177 5.94692 4.02233 5.79014 4.01272 5.60586C4.00311 5.42157 4.06988 5.26479 4.21303 5.13551C4.34764 5.0009 4.50443 4.93359 4.68339 4.93359C4.86233 4.93359 5.01911 5.0009 5.15372 5.13551L18.8428 18.8454C18.9721 18.9747 19.0367 19.128 19.0367 19.3053C19.0367 19.4827 18.9721 19.636 18.8428 19.7653C18.7082 19.8999 18.5514 19.9672 18.3724 19.9672C18.1935 19.9672 18.0367 19.8999 17.9021 19.7653ZM6.93899 8.80695C6.51271 9.15738 6.09845 9.56818 5.6962 10.0393C5.29395 10.5105 4.97102 11.0185 4.72743 11.5634C5.40798 12.9523 6.39409 14.053 7.68576 14.8655C8.97743 15.678 10.4149 16.0842 11.9983 16.0842C12.3359 16.0842 12.6892 16.0591 13.0584 16.0089C13.4275 15.9587 13.7221 15.8924 13.9422 15.8102L12.971 14.855C12.8567 14.8988 12.7061 14.9343 12.5191 14.9616C12.3321 14.9888 12.1585 15.0025 11.9983 15.0025C11.0389 15.0025 10.2258 14.6691 9.55918 14.0025C8.89251 13.3358 8.55918 12.5228 8.55918 11.5634C8.55918 11.4085 8.57627 11.2458 8.61047 11.0754C8.64466 10.905 8.68366 10.7503 8.72745 10.6114L6.93899 8.80695Z" fill="#1A1919"/>
</svg>
